<svg width="517" height="377" viewBox="0 0 517 377" fill="none" xmlns="http://www.w3.org/2000/svg">
<path d="M413.5 192C413.5 279.525 340.758 350.5 251 350.5C161.242 350.5 88.5 279.525 88.5 192C88.5 104.475 161.242 33.5 251 33.5C340.758 33.5 413.5 104.475 413.5 192Z" stroke="black"/>
<path d="M201.636 237H174.364V143.909H203.273C212.152 143.909 219.742 145.758 226.045 149.455C232.379 153.152 237.227 158.455 240.591 165.364C243.955 172.273 245.636 180.561 245.636 190.227C245.636 199.985 243.909 208.364 240.455 215.364C237.03 222.333 232.03 227.682 225.455 231.409C218.909 235.136 210.97 237 201.636 237ZM182.864 229.364H201.136C209.136 229.364 215.833 227.788 221.227 224.636C226.621 221.485 230.667 216.985 233.364 211.136C236.061 205.288 237.409 198.318 237.409 190.227C237.379 182.197 236.045 175.288 233.409 169.5C230.803 163.712 226.924 159.273 221.773 156.182C216.652 153.091 210.318 151.545 202.773 151.545H182.864V229.364ZM339.148 173H330.602C329.966 169.818 328.814 166.879 327.148 164.182C325.511 161.455 323.451 159.076 320.966 157.045C318.481 155.015 315.663 153.439 312.511 152.318C309.36 151.197 305.951 150.636 302.284 150.636C296.405 150.636 291.042 152.167 286.193 155.227C281.375 158.288 277.511 162.788 274.602 168.727C271.723 174.636 270.284 181.879 270.284 190.455C270.284 199.091 271.723 206.364 274.602 212.273C277.511 218.182 281.375 222.667 286.193 225.727C291.042 228.758 296.405 230.273 302.284 230.273C305.951 230.273 309.36 229.712 312.511 228.591C315.663 227.47 318.481 225.909 320.966 223.909C323.451 221.879 325.511 219.5 327.148 216.773C328.814 214.045 329.966 211.091 330.602 207.909H339.148C338.39 212.182 336.966 216.167 334.875 219.864C332.814 223.53 330.178 226.742 326.966 229.5C323.784 232.258 320.117 234.409 315.966 235.955C311.814 237.5 307.254 238.273 302.284 238.273C294.466 238.273 287.527 236.318 281.466 232.409C275.405 228.47 270.648 222.924 267.193 215.773C263.769 208.621 262.057 200.182 262.057 190.455C262.057 180.727 263.769 172.288 267.193 165.136C270.648 157.985 275.405 152.455 281.466 148.545C287.527 144.606 294.466 142.636 302.284 142.636C307.254 142.636 311.814 143.409 315.966 144.955C320.117 146.47 323.784 148.621 326.966 151.409C330.178 154.167 332.814 157.379 334.875 161.045C336.966 164.712 338.39 168.697 339.148 173Z" fill="#CE9A4C"/>
</svg>
